HIERARCHY
ROOT Hips
{
	OFFSET 4.076200 -17.275196 43.303001
	CHANNELS 6 Xposition Yposition Zposition Zrotation Xrotation Yrotation
	JOINT Chest
	{
		OFFSET -0.689800 0.941999 5.341000
		CHANNELS 6 Xposition Yposition Zposition Zrotation Xrotation Yrotation
		JOINT Chest2
		{
			OFFSET 0.000000 0.000000 4.278900
			CHANNELS 6 Xposition Yposition Zposition Zrotation Xrotation Yrotation
			JOINT Neck
			{
				OFFSET 0.000000 0.000000 9.970299
				CHANNELS 6 Xposition Yposition Zposition Zrotation Xrotation Yrotation
				JOINT Head
				{
					OFFSET 0.000000 0.000002 2.173901
					CHANNELS 6 Xposition Yposition Zposition Zrotation Xrotation Yrotation
					End Site
					{
						OFFSET 0.000000 0.000000 6.488197
					}
				}
			}
			JOINT LeftCollar
			{
				OFFSET 2.472300 -0.285801 5.433899
				CHANNELS 6 Xposition Yposition Zposition Zrotation Xrotation Yrotation
				JOINT LeftShoulder
				{
					OFFSET 5.327700 0.000000 0.000000
					CHANNELS 6 Xposition Yposition Zposition Zrotation Xrotation Yrotation
					JOINT LeftElbow
					{
						OFFSET 0.000000 0.000000 -10.713001
						CHANNELS 6 Xposition Yposition Zposition Zrotation Xrotation Yrotation
						JOINT LeftWrist
						{
							OFFSET 0.000000 -0.000002 -13.396900
							CHANNELS 6 Xposition Yposition Zposition Zrotation Xrotation Yrotation
							End Site
							{
								OFFSET 0.000000 0.000000 -2.173901
							}
						}
					}
				}
			}
			JOINT RightCollar
			{
				OFFSET -2.589400 -1.358400 6.105000
				CHANNELS 6 Xposition Yposition Zposition Zrotation Xrotation Yrotation
				JOINT RightShoulder
				{
					OFFSET -4.580200 0.000000 0.000000
					CHANNELS 6 Xposition Yposition Zposition Zrotation Xrotation Yrotation
					JOINT RightElbow
					{
						OFFSET 0.000000 0.000000 -10.761101
						CHANNELS 6 Xposition Yposition Zposition Zrotation Xrotation Yrotation
						JOINT RightWrist
						{
							OFFSET 0.000000 -0.000002 -13.028500
							CHANNELS 6 Xposition Yposition Zposition Zrotation Xrotation Yrotation
							End Site
							{
								OFFSET 0.000000 0.000000 -2.173901
							}
						}
					}
				}
			}
		}
	}
	JOINT LeftHip
	{
		OFFSET 2.532500 0.486900 -2.489700
		CHANNELS 6 Xposition Yposition Zposition Zrotation Xrotation Yrotation
		JOINT LeftKnee
		{
			OFFSET 0.000000 -0.000002 -18.199398
			CHANNELS 6 Xposition Yposition Zposition Zrotation Xrotation Yrotation
			JOINT LeftAnkle
			{
				OFFSET 0.000000 -0.000002 -16.083900
				CHANNELS 6 Xposition Yposition Zposition Zrotation Xrotation Yrotation
				End Site
				{
					OFFSET 0.000000 -8.641399 0.000000
				}
			}
		}
	}
	JOINT RightHip
	{
		OFFSET -2.112700 -0.049900 -2.711102
		CHANNELS 6 Xposition Yposition Zposition Zrotation Xrotation Yrotation
		JOINT RightKnee
		{
			OFFSET 0.000000 -0.000002 -19.127298
			CHANNELS 6 Xposition Yposition Zposition Zrotation Xrotation Yrotation
			JOINT RightAnkle
			{
				OFFSET 0.000000 -0.000002 -14.874901
				CHANNELS 6 Xposition Yposition Zposition Zrotation Xrotation Yrotation
				End Site
				{
					OFFSET 0.000000 -8.198299 0.000000
				}
			}
		}
	}
}
MOTION
Frames: 7
Frame Time: 0.041667
97.031502 -59.387402 46.549694 -83.979034 -0.044678 0.517443 -0.689798 0.941998 5.340994 -8.931108 1.531039 0.337109 -0.000006 -0.000008 4.278893 4.480055 0.253281 0.069227 -0.000002 -0.000009 9.970296 -3.447913 8.312278 1.953633 -0.000003 -0.000007 2.173893 1.522625 0.307559 -1.447057 2.472295 -0.285810 5.433892 -13.216022 -1.415972 -10.608928 5.327708 -0.000013 0.000000 -18.616509 -40.427692 -34.589854 0.000001 0.000004 -10.713000 27.957185 -41.977458 75.014479 -0.000004 -0.000005 -13.396895 -73.222886 -1.936368 -92.338106 -2.589401 -1.358408 6.104996 12.607470 2.416555 7.793837 -4.580196 -0.000008 0.000003 40.160344 -29.222510 50.943799 0.000006 -0.000009 -10.761098 -56.131529 -53.467438 -83.786579 0.000002 -0.000012 -13.028499 -101.106327 2.009054 -144.093072 2.532500 0.486902 -2.489709 3.349974 -3.325942 -0.368752 -0.000001 -0.000003 -18.199402 23.175819 24.767092 3.253166 0.000009 0.000008 -16.083895 -32.004730 66.117365 1.458921 -2.112698 -0.049906 -2.711101 -33.282337 -30.090965 -12.589308 0.000007 -0.000003 -19.127296 -12.472436 31.170890 6.821263 0.000004 -0.000008 -14.874899 56.386733 79.242509 -17.123370
96.881004 -59.423298 46.528900 -83.607574 -0.036308 0.421467 -0.689798 0.942004 5.340992 -9.513423 1.401551 0.426828 0.000003 -0.000006 4.278902 4.778634 0.296136 0.079305 -0.000008 -0.000005 9.970304 -3.534030 8.208110 2.131140 -0.000004 -0.000002 2.173893 1.623456 0.201565 -1.648557 2.472295 -0.285805 5.433905 -13.237398 -1.350125 -10.495998 5.327707 0.000003 0.000005 -18.517404 -40.354605 -34.519025 0.000014 0.000001 -10.712997 27.874791 -41.975983 74.861448 -0.000001 -0.000007 -13.396891 -73.377815 -2.258798 -91.987683 -2.589406 -1.358405 6.105010 12.537889 2.578396 7.949122 -4.580194 -0.000002 0.000009 40.288014 -29.391185 50.995162 0.000007 -0.000002 -10.761097 -56.002784 -53.379448 -83.700464 -0.000005 -0.000006 -13.028509 -101.371666 1.966873 -144.316146 2.532503 0.486902 -2.489712 3.203233 -3.139010 -0.382958 -0.000002 -0.000003 -18.199400 22.821484 24.825608 3.407052 -0.000003 0.000008 -16.083902 -32.538608 66.094306 2.089108 -2.112701 -0.049895 -2.711115 -33.033913 -29.894976 -12.296132 0.000007 0.000012 -19.127310 -14.403269 29.785687 6.334236 -0.000004 0.000003 -14.874897 61.134667 80.006561 -21.501434
96.723801 -59.462597 46.512997 -83.266119 -0.029232 0.340077 -0.689812 0.942006 5.340991 -10.098355 1.253743 0.484243 -0.000005 -0.000019 4.278892 5.039428 0.328021 0.087122 0.000006 -0.000016 9.970288 -3.532232 8.199387 2.285586 -0.000005 0.000005 2.173885 1.664196 0.223124 -1.797017 2.472305 -0.285815 5.433895 -13.349209 -1.251548 -10.230993 5.327707 0.000014 0.000000 -18.487034 -40.165211 -34.655297 0.000004 -0.000001 -10.713000 27.721979 -42.009772 74.579717 0.000001 0.000003 -13.396907 -73.319089 -2.478510 -92.026677 -2.589398 -1.358414 6.104994 12.725461 3.126499 7.886557 -4.580203 0.000008 0.000002 40.439409 -29.597829 51.501836 0.000008 0.000002 -10.761100 -55.621738 -53.515441 -83.289833 0.000008 -0.000012 -13.028494 -101.525113 2.058126 -144.399748 2.532481 0.486909 -2.489700 3.033657 -2.933679 -0.435558 0.000005 -0.000016 -18.199404 23.050785 24.883486 3.413150 -0.000004 0.000002 -16.083900 -33.610261 66.139870 2.835684 -2.112715 -0.049895 -2.711108 -32.144209 -29.634002 -11.692605 0.000003 -0.000002 -19.127291 -15.722962 28.725610 5.623990 0.000009 -0.000004 -14.874899 63.458509 80.080375 -24.120019
96.558990 -59.500694 46.496998 -82.909761 -0.020945 0.244056 -0.689802 0.941993 5.340992 -10.541531 1.112062 0.539162 0.000001 -0.000012 4.278903 5.209111 0.362755 0.094253 0.000005 -0.000008 9.970304 -3.540289 8.217132 2.410444 -0.000001 -0.000004 2.173896 1.686338 0.228745 -1.909435 2.472302 -0.285807 5.433901 -13.334688 -1.174491 -10.144568 5.327703 0.000004 0.000000 -18.373269 -40.088088 -34.428180 0.000024 -0.000005 -10.712990 27.569533 -42.127381 74.417800 -0.000004 0.000002 -13.396894 -73.041756 -2.492322 -91.987144 -2.589396 -1.358407 6.105000 12.736884 3.279645 7.881287 -4.580205 -0.000005 0.000010 40.528075 -29.508169 51.649330 0.000006 0.000000 -10.761106 -55.531101 -53.399963 -83.132398 0.000002 -0.000007 -13.028508 -101.293229 2.132163 -144.516079 2.532499 0.486891 -2.489704 2.804369 -2.718152 -0.457456 -0.000004 -0.000008 -18.199408 23.113020 24.877579 3.502623 -0.000007 0.000000 -16.083902 -34.388059 66.255014 3.381086 -2.112701 -0.049909 -2.711109 -31.328927 -29.314267 -11.173018 -0.000001 -0.000002 -19.127289 -15.954487 28.024932 4.798894 0.000007 0.000005 -14.874900 64.366883 80.307554 -25.558325
96.383698 -59.539391 46.479298 -82.555800 -0.000006 0.000005 -0.689797 0.941988 5.340985 -10.935301 0.882468 0.779760 -0.000000 -0.000012 4.278895 5.352032 0.374566 0.102206 -0.000005 -0.000004 9.970299 -3.600252 8.329927 2.452076 -0.000005 0.000007 2.173892 1.729526 0.227330 -1.972035 2.472301 -0.285805 5.433901 -13.400961 -1.020183 -10.045347 5.327709 -0.000016 -0.000006 -18.230957 -40.031472 -34.295783 0.000002 -0.000000 -10.713000 27.382700 -42.079976 74.237791 -0.000001 -0.000005 -13.396896 -73.119204 -2.643579 -91.862820 -2.589401 -1.358405 6.105002 12.832039 3.499773 7.634500 -4.580202 0.000002 -0.000000 40.423945 -29.546944 51.834449 0.000014 -0.000004 -10.761110 -54.948998 -53.546839 -82.746362 0.000007 -0.000004 -13.028498 -101.408010 2.166056 -144.537308 2.532503 0.486891 -2.489719 2.433460 -2.476664 -0.312771 0.000013 -0.000008 -18.199398 23.033826 24.857872 3.651567 0.000005 -0.000005 -16.083904 -34.897813 66.366763 3.767036 -2.112697 -0.049911 -2.711119 -30.733184 -29.071389 -10.655372 -0.000001 0.000005 -19.127298 -16.332545 27.518052 4.239505 0.000002 -0.000012 -14.874896 65.583804 80.421939 -27.261776
96.196999 -59.572491 46.460396 -82.206900 -0.000007 0.000004 -0.689808 0.941995 5.340997 -11.294444 0.721228 0.790383 0.000003 -0.000002 4.278900 5.448800 0.410758 0.108483 0.000008 -0.000011 9.970302 -3.752014 8.420258 2.591089 -0.000003 0.000007 2.173900 1.894097 0.239278 -2.115734 2.472302 -0.285805 5.433907 -13.516514 -0.889586 -9.905636 5.327707 -0.000004 -0.000004 -18.304407 -39.896269 -34.465708 0.000002 -0.000007 -10.713010 27.438712 -41.772518 74.140481 -0.000010 -0.000005 -13.396895 -73.381469 -2.602240 -91.856673 -2.589392 -1.358409 6.105003 13.137345 3.884650 7.361999 -4.580207 0.000005 0.000007 40.531237 -29.236696 52.355070 0.000016 -0.000001 -10.761095 -55.318754 -53.316201 -82.713427 0.000005 0.000001 -13.028500 -101.617068 2.128244 -144.660907 2.532496 0.486891 -2.489707 2.101233 -2.247060 -0.457229 0.000002 -0.000004 -18.199394 22.810551 24.922703 3.859159 0.000006 0.000005 -16.083900 -35.379461 66.376919 4.516081 -2.112706 -0.049912 -2.711107 -30.042785 -28.623067 -10.382179 -0.000006 -0.000003 -19.127289 -16.922504 26.972991 3.889930 0.000002 -0.000010 -14.874897 67.058183 80.470529 -29.094871
96.005997 -59.614391 46.447098 -81.884802 -0.000008 0.000004 -0.689799 0.942005 5.340997 -11.405720 0.557876 0.847499 -0.000000 0.000002 4.278906 5.445293 0.466537 0.116248 0.000002 0.000000 9.970295 -3.685428 8.483507 2.338635 -0.000008 0.000006 2.173891 1.728364 0.281146 -1.971342 2.472301 -0.285803 5.433894 -13.751019 -0.767625 -9.975146 5.327705 -0.000011 -0.000009 -18.401418 -39.801746 -34.550649 0.000004 -0.000010 -10.712996 27.603702 -41.234354 74.114239 0.000010 -0.000006 -13.396898 -73.811894 -2.770684 -91.753927 -2.589396 -1.358400 6.104999 13.087563 3.982020 7.286927 -4.580215 0.000006 0.000007 40.463140 -29.134978 52.317456 -0.000003 0.000004 -10.761101 -55.272606 -53.019077 -82.543109 0.000001 -0.000008 -13.028506 -101.368081 2.200082 -144.697189 2.532503 0.486908 -2.489698 1.865058 -2.044586 -0.562077 0.000001 -0.000009 -18.199396 22.972561 24.947833 3.879927 0.000010 -0.000002 -16.083900 -36.512655 66.444101 5.654065 -2.112696 -0.049894 -2.711103 -29.135214 -28.073903 -9.936068 -0.000000 -0.000006 -19.127295 -16.741540 26.588019 3.208555 -0.000002 -0.000014 -14.874896 66.033121 80.130885 -29.178828
